<svg width="2649" height="560" viewBox="0 0 2649 560" fill="none" xmlns="http://www.w3.org/2000/svg">
<path fill-rule="evenodd" clip-rule="evenodd" d="M559 559.011H0V-0.000287068H559V559.011ZM152.652 268.199L39.2958 333.639V519.704H152.652V268.199ZM39.2958 288.355L170.291 212.727V212.733L279.519 149.683L289.272 155.323L367.046 200.204V39.3011H39.2958V288.355ZM367.046 367.052V245.494L279.481 194.945L191.954 245.461V367.052H367.046ZM406.348 39.3011V222.899L519.699 288.35V39.3011H406.348ZM406.348 268.188V406.347H191.954V519.704H519.699V333.634L406.348 268.188Z" fill="url(#paint0_linear_2624_32348)"/>
<path d="M725.748 326.344H764.799L852.663 508H813.961L799.433 477.433H693.322L679.259 508H640.441L725.748 326.344ZM784.905 447.099L745.622 364.581L707.385 447.099H784.905ZM861.667 315.187H896.069V508H861.667V315.187ZM945.053 396.659H911.929V370.857H945.053V328.204H979.454V370.857H1012.58V396.659H979.454V508H945.053V396.659ZM1019.02 439.429C1019.02 429.588 1021 420.368 1024.95 411.768C1028.98 403.167 1034.68 395.651 1042.04 389.22C1049.47 382.789 1058.42 377.714 1068.88 373.995C1079.42 370.276 1091.24 368.417 1104.33 368.417C1117.43 368.417 1129.2 370.276 1139.66 373.995C1150.2 377.714 1159.15 382.789 1166.51 389.22C1173.95 395.651 1179.64 403.167 1183.6 411.768C1187.62 420.368 1189.64 429.588 1189.64 439.429C1189.64 449.269 1187.62 458.489 1183.6 467.09C1179.64 475.69 1173.95 483.206 1166.51 489.637C1159.15 496.068 1150.2 501.143 1139.66 504.862C1129.2 508.581 1117.43 510.441 1104.33 510.441C1091.24 510.441 1079.42 508.581 1068.88 504.862C1058.42 501.143 1049.47 496.068 1042.04 489.637C1034.68 483.206 1028.98 475.69 1024.95 467.09C1021 458.489 1019.02 449.269 1019.02 439.429ZM1055.17 439.429C1055.17 444.93 1056.25 450.16 1058.42 455.119C1060.67 460 1063.89 464.339 1068.07 468.136C1072.33 471.855 1077.48 474.838 1083.53 477.085C1089.65 479.254 1096.58 480.339 1104.33 480.339C1112.08 480.339 1118.98 479.254 1125.02 477.085C1131.14 474.838 1136.29 471.855 1140.48 468.136C1144.74 464.339 1147.95 460 1150.12 455.119C1152.37 450.16 1153.49 444.93 1153.49 439.429C1153.49 433.927 1152.37 428.697 1150.12 423.739C1147.95 418.78 1144.74 414.441 1140.48 410.722C1136.29 406.925 1131.14 403.942 1125.02 401.772C1118.98 399.526 1112.08 398.402 1104.33 398.402C1096.58 398.402 1089.65 399.526 1083.53 401.772C1077.48 403.942 1072.33 406.925 1068.07 410.722C1063.89 414.441 1060.67 418.78 1058.42 423.739C1056.25 428.697 1055.17 433.927 1055.17 439.429ZM1275.98 326.344H1371.75C1385.7 326.344 1397.79 327.855 1408.01 330.877C1418.24 333.898 1426.73 338.276 1433.47 344.01C1440.21 349.666 1445.21 356.601 1448.46 364.814C1451.79 373.027 1453.46 382.286 1453.46 392.591C1453.46 402.276 1451.83 411.225 1448.58 419.438C1445.32 427.651 1440.32 434.78 1433.58 440.823C1426.92 446.789 1418.47 451.477 1408.25 454.886C1398.02 458.218 1385.93 459.884 1371.98 459.884L1312.83 459.768V508H1275.98V326.344ZM1372.68 427.923C1379.66 427.923 1385.74 427.109 1390.93 425.482C1396.2 423.777 1400.58 421.414 1404.06 418.392C1407.63 415.293 1410.26 411.574 1411.97 407.235C1413.75 402.818 1414.64 397.937 1414.64 392.591C1414.64 381.821 1411.11 373.453 1404.06 367.487C1397.09 361.443 1386.63 358.421 1372.68 358.421H1312.83V427.923H1372.68ZM1467.11 464.765C1467.11 458.179 1468.54 452.174 1471.41 446.751C1474.28 441.327 1478.58 436.678 1484.31 432.804C1490.04 428.852 1497.17 425.831 1505.7 423.739C1514.3 421.569 1524.29 420.484 1535.68 420.484C1544.13 420.484 1553 421.104 1562.3 422.344C1571.67 423.584 1581.32 425.482 1591.24 428.039C1590.85 423.7 1589.53 419.71 1587.28 416.068C1585.04 412.349 1581.9 409.172 1577.87 406.538C1573.92 403.826 1569.11 401.734 1563.46 400.262C1557.88 398.789 1551.53 398.053 1544.4 398.053C1540.52 398.053 1536.26 398.286 1531.61 398.751C1526.96 399.216 1522.16 399.913 1517.2 400.843C1512.24 401.772 1507.32 402.935 1502.44 404.329C1497.64 405.724 1493.14 407.39 1488.96 409.327L1478.5 381.085C1483.69 379.225 1489.23 377.521 1495.12 375.971C1501.08 374.421 1507.17 373.104 1513.37 372.019C1519.56 370.857 1525.76 369.966 1531.96 369.346C1538.16 368.727 1544.16 368.417 1549.98 368.417C1575.62 368.417 1594.68 374.964 1607.16 388.058C1619.63 401.153 1625.87 421.22 1625.87 448.262V508H1591.47V495.099C1587.9 497.191 1583.99 499.167 1579.73 501.027C1575.54 502.886 1570.97 504.513 1566.01 505.908C1561.06 507.303 1555.71 508.387 1549.98 509.162C1544.32 510.015 1538.31 510.441 1531.96 510.441C1521.27 510.441 1511.85 509.278 1503.72 506.954C1495.66 504.63 1488.92 501.414 1483.5 497.308C1478.07 493.201 1473.97 488.397 1471.18 482.896C1468.47 477.317 1467.11 471.274 1467.11 464.765ZM1503.37 463.603C1503.37 465.85 1503.95 468.019 1505.11 470.111C1506.28 472.126 1508.14 473.947 1510.69 475.574C1513.25 477.124 1516.5 478.402 1520.46 479.409C1524.48 480.339 1529.33 480.804 1534.98 480.804C1541.03 480.804 1546.88 480.262 1552.53 479.177C1558.19 478.092 1563.46 476.659 1568.34 474.877C1573.22 473.094 1577.64 471.041 1581.59 468.717C1585.54 466.392 1588.83 463.99 1591.47 461.511V455.467C1586.2 453.995 1580.97 452.755 1575.78 451.748C1570.66 450.741 1565.74 449.966 1561.02 449.424C1556.37 448.804 1551.95 448.378 1547.77 448.145C1543.66 447.913 1540.06 447.797 1536.96 447.797C1530.53 447.797 1525.18 448.223 1520.92 449.075C1516.66 449.927 1513.21 451.09 1510.58 452.562C1507.94 453.956 1506.08 455.622 1505 457.559C1503.91 459.496 1503.37 461.511 1503.37 463.603ZM1644.98 440.01C1644.98 429.085 1647.04 419.245 1651.14 410.489C1655.25 401.656 1660.91 394.141 1668.11 387.942C1675.4 381.666 1684 376.862 1693.91 373.53C1703.91 370.121 1714.72 368.417 1726.34 368.417C1731.3 368.417 1736.18 368.727 1740.98 369.346C1745.87 369.966 1750.51 370.819 1754.93 371.903C1759.42 372.988 1763.61 374.305 1767.48 375.855C1771.43 377.327 1774.92 378.954 1777.94 380.736V315.187H1812.34V508H1777.94V495.099C1774.92 497.191 1771.36 499.167 1767.25 501.027C1763.14 502.886 1758.73 504.513 1754 505.908C1749.27 507.303 1744.35 508.387 1739.24 509.162C1734.2 510.015 1729.21 510.441 1724.25 510.441C1712.63 510.441 1701.93 508.736 1692.17 505.327C1682.49 501.918 1674.16 497.114 1667.18 490.915C1660.21 484.717 1654.75 477.317 1650.8 468.717C1646.92 460.039 1644.98 450.47 1644.98 440.01ZM1681.13 440.01C1681.13 445.511 1682.21 450.702 1684.38 455.584C1686.63 460.465 1689.81 464.765 1693.91 468.484C1698.1 472.126 1703.1 475.032 1708.91 477.201C1714.8 479.293 1721.38 480.339 1728.66 480.339C1733.31 480.339 1737.96 479.913 1742.61 479.061C1747.26 478.131 1751.72 476.852 1755.98 475.225C1760.32 473.598 1764.34 471.622 1768.06 469.298C1771.86 466.973 1775.15 464.378 1777.94 461.511V413.976C1774.46 411.187 1770.78 408.823 1766.9 406.886C1763.03 404.949 1759.08 403.361 1755.05 402.121C1751.02 400.881 1746.95 399.99 1742.84 399.448C1738.74 398.828 1734.75 398.518 1730.87 398.518C1722.97 398.518 1715.92 399.603 1709.72 401.772C1703.6 403.864 1698.41 406.77 1694.15 410.489C1689.96 414.208 1686.75 418.586 1684.5 423.622C1682.25 428.659 1681.13 434.121 1681.13 440.01ZM1838.67 370.857H1873.07V390.615C1880.66 384.959 1888.68 380.078 1897.13 375.971C1905.57 371.865 1913.98 368.727 1922.35 366.557L1932.46 398.053C1919.21 399.371 1907.55 402.354 1897.47 407.003C1887.48 411.574 1879.34 418.044 1873.07 426.412V508H1838.67V370.857ZM1935.77 464.765C1935.77 458.179 1937.2 452.174 1940.07 446.751C1942.93 441.327 1947.23 436.678 1952.97 432.804C1958.7 428.852 1965.83 425.831 1974.35 423.739C1982.95 421.569 1992.95 420.484 2004.34 420.484C2012.78 420.484 2021.65 421.104 2030.95 422.344C2040.33 423.584 2049.97 425.482 2059.89 428.039C2059.5 423.7 2058.19 419.71 2055.94 416.068C2053.69 412.349 2050.55 409.172 2046.53 406.538C2042.57 403.826 2037.77 401.734 2032.11 400.262C2026.54 398.789 2020.18 398.053 2013.05 398.053C2009.18 398.053 2004.92 398.286 2000.27 398.751C1995.62 399.216 1990.82 399.913 1985.86 400.843C1980.9 401.772 1975.98 402.935 1971.1 404.329C1966.29 405.724 1961.8 407.39 1957.62 409.327L1947.16 381.085C1952.35 379.225 1957.89 377.521 1963.78 375.971C1969.74 374.421 1975.82 373.104 1982.02 372.019C1988.22 370.857 1994.42 369.966 2000.62 369.346C2006.82 368.727 2012.82 368.417 2018.63 368.417C2044.28 368.417 2063.34 374.964 2075.81 388.058C2088.29 401.153 2094.53 421.22 2094.53 448.262V508H2060.12V495.099C2056.56 497.191 2052.65 499.167 2048.39 501.027C2044.2 502.886 2039.63 504.513 2034.67 505.908C2029.71 507.303 2024.37 508.387 2018.63 509.162C2012.98 510.015 2006.97 510.441 2000.62 510.441C1989.93 510.441 1980.51 509.278 1972.38 506.954C1964.32 504.63 1957.58 501.414 1952.15 497.308C1946.73 493.201 1942.62 488.397 1939.83 482.896C1937.12 477.317 1935.77 471.274 1935.77 464.765ZM1972.03 463.603C1972.03 465.85 1972.61 468.019 1973.77 470.111C1974.93 472.126 1976.79 473.947 1979.35 475.574C1981.91 477.124 1985.16 478.402 1989.11 479.409C1993.14 480.339 1997.98 480.804 2003.64 480.804C2009.68 480.804 2015.53 480.262 2021.19 479.177C2026.85 478.092 2032.11 476.659 2037 474.877C2041.88 473.094 2046.29 471.041 2050.24 468.717C2054.2 466.392 2057.49 463.99 2060.12 461.511V455.467C2054.86 453.995 2049.63 452.755 2044.43 451.748C2039.32 450.741 2034.4 449.966 2029.67 449.424C2025.02 448.804 2020.61 448.378 2016.42 448.145C2012.32 447.913 2008.71 447.797 2005.62 447.797C1999.18 447.797 1993.84 448.223 1989.58 449.075C1985.32 449.927 1981.87 451.09 1979.23 452.562C1976.6 453.956 1974.74 455.622 1973.65 457.559C1972.57 459.496 1972.03 461.511 1972.03 463.603ZM1963.08 314.373C1967.26 309.957 1971.95 306.586 1977.14 304.262C1982.33 301.937 1987.72 300.775 1993.3 300.775C1998.18 300.775 2002.48 301.55 2006.2 303.099C2009.92 304.572 2013.44 306.237 2016.77 308.097C2020.1 309.879 2023.36 311.545 2026.54 313.095C2029.71 314.567 2033.2 315.303 2037 315.303C2039.32 315.303 2041.84 314.993 2044.55 314.373C2047.34 313.676 2050.09 312.746 2052.8 311.584C2055.51 310.421 2058.11 309.027 2060.59 307.4C2063.15 305.773 2065.35 304.029 2067.21 302.17V331.225C2063.03 335.642 2058.34 339.012 2053.15 341.337C2047.96 343.661 2042.57 344.823 2037 344.823C2032.11 344.823 2027.81 344.087 2024.09 342.615C2020.38 341.066 2016.85 339.4 2013.52 337.618C2010.19 335.758 2006.93 334.092 2003.76 332.62C2000.58 331.07 1997.09 330.296 1993.3 330.296C1990.97 330.296 1988.41 330.644 1985.63 331.342C1982.91 331.961 1980.2 332.852 1977.49 334.015C1974.78 335.177 1972.14 336.572 1969.59 338.199C1967.11 339.826 1964.94 341.569 1963.08 343.429V314.373ZM2115.96 439.429C2115.96 429.588 2117.94 420.368 2121.89 411.768C2125.92 403.167 2131.62 395.651 2138.98 389.22C2146.42 382.789 2155.36 377.714 2165.82 373.995C2176.36 370.276 2188.18 368.417 2201.27 368.417C2214.37 368.417 2226.14 370.276 2236.6 373.995C2247.14 377.714 2256.09 382.789 2263.45 389.22C2270.89 395.651 2276.58 403.167 2280.54 411.768C2284.57 420.368 2286.58 429.588 2286.58 439.429C2286.58 449.269 2284.57 458.489 2280.54 467.09C2276.58 475.69 2270.89 483.206 2263.45 489.637C2256.09 496.068 2247.14 501.143 2236.6 504.862C2226.14 508.581 2214.37 510.441 2201.27 510.441C2188.18 510.441 2176.36 508.581 2165.82 504.862C2155.36 501.143 2146.42 496.068 2138.98 489.637C2131.62 483.206 2125.92 475.69 2121.89 467.09C2117.94 458.489 2115.96 449.269 2115.96 439.429ZM2152.11 439.429C2152.11 444.93 2153.19 450.16 2155.36 455.119C2157.61 460 2160.83 464.339 2165.01 468.136C2169.27 471.855 2174.42 474.838 2180.47 477.085C2186.59 479.254 2193.52 480.339 2201.27 480.339C2209.02 480.339 2215.92 479.254 2221.96 477.085C2228.08 474.838 2233.23 471.855 2237.42 468.136C2241.68 464.339 2244.89 460 2247.06 455.119C2249.31 450.16 2250.43 444.93 2250.43 439.429C2250.43 433.927 2249.31 428.697 2247.06 423.739C2244.89 418.78 2241.68 414.441 2237.42 410.722C2233.23 406.925 2228.08 403.942 2221.96 401.772C2215.92 399.526 2209.02 398.402 2201.27 398.402C2193.52 398.402 2186.59 399.526 2180.47 401.772C2174.42 403.942 2169.27 406.925 2165.01 410.722C2160.83 414.441 2157.61 418.78 2155.36 423.739C2153.19 428.697 2152.11 433.927 2152.11 439.429Z" fill="url(#paint1_linear_2624_32348)"/>
<path d="M659.153 51.344H696.228V233H659.153V51.344ZM723.129 95.8573H757.531V107.48C766.674 102.288 775.391 98.6466 783.681 96.5546C792.049 94.4626 800.224 93.4166 808.204 93.4166C818.664 93.4166 828.349 94.9662 837.26 98.0655C846.17 101.087 853.88 105.62 860.388 111.664C866.897 117.707 871.972 125.262 875.613 134.327C879.332 143.315 881.192 153.736 881.192 165.591V233H846.906V171.17C846.906 163.654 845.822 156.952 843.652 151.063C841.56 145.097 838.5 140.099 834.471 136.07C830.519 131.964 825.676 128.864 819.943 126.772C814.287 124.603 807.933 123.518 800.882 123.518C797.163 123.518 793.328 123.906 789.376 124.68C785.502 125.455 781.667 126.579 777.87 128.051C774.151 129.446 770.548 131.228 767.061 133.397C763.575 135.489 760.398 137.891 757.531 140.603V233H723.129V95.8573ZM899.377 164.777C899.377 154.705 901.198 145.329 904.839 136.651C908.559 127.896 913.944 120.341 920.994 113.988C928.123 107.557 936.801 102.521 947.028 98.879C957.333 95.2374 969.072 93.4166 982.244 93.4166C987.977 93.4166 993.75 93.7652 999.561 94.4626C1005.37 95.1599 1010.95 96.1672 1016.3 97.4844C1021.72 98.7241 1026.8 100.235 1031.52 102.017C1036.25 103.722 1040.36 105.62 1043.84 107.712L1027.92 133.63C1020.4 130.143 1013.28 127.586 1006.53 125.959C999.871 124.332 993.091 123.518 986.195 123.518C978.292 123.518 971.203 124.564 964.927 126.656C958.651 128.671 953.304 131.538 948.888 135.257C944.549 138.898 941.217 143.237 938.893 148.274C936.646 153.233 935.522 158.656 935.522 164.545C935.522 170.433 936.723 175.896 939.125 180.932C941.605 185.891 945.053 190.191 949.469 193.833C953.963 197.397 959.348 200.225 965.624 202.317C971.977 204.332 979.028 205.339 986.776 205.339C995.299 205.339 1003.32 204.138 1010.83 201.736C1018.43 199.334 1025.48 196.119 1031.99 192.09L1047.91 218.007C1043.8 220.487 1039.35 222.811 1034.54 224.981C1029.74 227.073 1024.59 228.893 1019.09 230.443C1013.66 231.993 1007.93 233.194 1001.89 234.046C995.919 234.976 989.721 235.441 983.29 235.441C970.195 235.441 958.457 233.659 948.074 230.094C937.692 226.53 928.898 221.61 921.692 215.334C914.486 208.981 908.946 201.504 905.072 192.903C901.275 184.303 899.377 174.927 899.377 164.777ZM1060.86 164.429C1060.86 154.588 1062.84 145.368 1066.79 136.768C1070.82 128.167 1076.52 120.651 1083.88 114.22C1091.31 107.789 1100.26 102.714 1110.72 98.9953C1121.26 95.2761 1133.08 93.4166 1146.17 93.4166C1159.27 93.4166 1171.04 95.2761 1181.5 98.9953C1192.04 102.714 1200.99 107.789 1208.35 114.22C1215.79 120.651 1221.48 128.167 1225.44 136.768C1229.46 145.368 1231.48 154.588 1231.48 164.429C1231.48 174.269 1229.46 183.489 1225.44 192.09C1221.48 200.69 1215.79 208.206 1208.35 214.637C1200.99 221.068 1192.04 226.143 1181.5 229.862C1171.04 233.581 1159.27 235.441 1146.17 235.441C1133.08 235.441 1121.26 233.581 1110.72 229.862C1100.26 226.143 1091.31 221.068 1083.88 214.637C1076.52 208.206 1070.82 200.69 1066.79 192.09C1062.84 183.489 1060.86 174.269 1060.86 164.429ZM1097.01 164.429C1097.01 169.93 1098.09 175.16 1100.26 180.119C1102.51 185 1105.73 189.339 1109.91 193.136C1114.17 196.855 1119.32 199.838 1125.37 202.085C1131.49 204.254 1138.42 205.339 1146.17 205.339C1153.92 205.339 1160.82 204.254 1166.86 202.085C1172.98 199.838 1178.13 196.855 1182.32 193.136C1186.58 189.339 1189.79 185 1191.96 180.119C1194.21 175.16 1195.33 169.93 1195.33 164.429C1195.33 158.927 1194.21 153.697 1191.96 148.739C1189.79 143.78 1186.58 139.441 1182.32 135.722C1178.13 131.925 1172.98 128.942 1166.86 126.772C1160.82 124.526 1153.92 123.402 1146.17 123.402C1138.42 123.402 1131.49 124.526 1125.37 126.772C1119.32 128.942 1114.17 131.925 1109.91 135.722C1105.73 139.441 1102.51 143.78 1100.26 148.739C1098.09 153.697 1097.01 158.927 1097.01 164.429ZM1250.36 95.8573H1284.76V115.615C1292.36 109.959 1300.38 105.078 1308.82 100.971C1317.27 96.8645 1325.67 93.7265 1334.04 91.557L1344.15 123.053C1330.9 124.371 1319.24 127.354 1309.17 132.003C1299.18 136.574 1291.04 143.044 1284.76 151.412V233H1250.36V95.8573ZM1387.44 289.019H1353.04V95.8573H1387.44V108.758C1390.46 106.666 1394.03 104.69 1398.13 102.831C1402.24 100.971 1406.66 99.3439 1411.38 97.9493C1416.11 96.5546 1420.99 95.4698 1426.03 94.695C1431.06 93.8427 1436.1 93.4166 1441.14 93.4166C1452.76 93.4166 1463.41 95.1212 1473.1 98.5304C1482.86 101.94 1491.23 106.743 1498.2 112.942C1505.18 119.141 1510.6 126.579 1514.47 135.257C1518.43 143.857 1520.4 153.387 1520.4 163.848C1520.4 174.772 1518.35 184.651 1514.24 193.484C1510.13 202.24 1504.44 209.755 1497.16 216.031C1489.95 222.23 1481.35 227.034 1471.36 230.443C1461.44 233.775 1450.67 235.441 1439.05 235.441C1434.09 235.441 1429.17 235.131 1424.29 234.511C1419.48 233.891 1414.83 233.039 1410.34 231.954C1405.92 230.869 1401.74 229.591 1397.79 228.119C1393.91 226.569 1390.46 224.903 1387.44 223.121V289.019ZM1387.44 189.881C1390.93 192.671 1394.61 195.034 1398.48 196.971C1402.36 198.908 1406.31 200.496 1410.34 201.736C1414.37 202.976 1418.44 203.906 1422.54 204.525C1426.65 205.068 1430.64 205.339 1434.51 205.339C1442.42 205.339 1449.43 204.293 1455.55 202.201C1461.75 200.032 1466.94 197.087 1471.12 193.368C1475.38 189.649 1478.64 185.271 1480.89 180.235C1483.13 175.199 1484.26 169.736 1484.26 163.848C1484.26 158.346 1483.13 153.155 1480.89 148.274C1478.72 143.392 1475.54 139.131 1471.36 135.489C1467.25 131.77 1462.25 128.864 1456.36 126.772C1450.55 124.603 1444 123.518 1436.72 123.518C1432.07 123.518 1427.42 123.983 1422.77 124.913C1418.13 125.765 1413.63 127.005 1409.29 128.632C1405.03 130.259 1401 132.235 1397.21 134.559C1393.49 136.884 1390.23 139.479 1387.44 142.346V189.881ZM1528.82 164.429C1528.82 154.588 1530.8 145.368 1534.75 136.768C1538.78 128.167 1544.47 120.651 1551.84 114.22C1559.27 107.789 1568.22 102.714 1578.68 98.9953C1589.22 95.2761 1601.04 93.4166 1614.13 93.4166C1627.23 93.4166 1639 95.2761 1649.46 98.9953C1660 102.714 1668.95 107.789 1676.31 114.22C1683.75 120.651 1689.44 128.167 1693.39 136.768C1697.42 145.368 1699.44 154.588 1699.44 164.429C1699.44 174.269 1697.42 183.489 1693.39 192.09C1689.44 200.69 1683.75 208.206 1676.31 214.637C1668.95 221.068 1660 226.143 1649.46 229.862C1639 233.581 1627.23 235.441 1614.13 235.441C1601.04 235.441 1589.22 233.581 1578.68 229.862C1568.22 226.143 1559.27 221.068 1551.84 214.637C1544.47 208.206 1538.78 200.69 1534.75 192.09C1530.8 183.489 1528.82 174.269 1528.82 164.429ZM1564.97 164.429C1564.97 169.93 1566.05 175.16 1568.22 180.119C1570.47 185 1573.69 189.339 1577.87 193.136C1582.13 196.855 1587.28 199.838 1593.33 202.085C1599.45 204.254 1606.38 205.339 1614.13 205.339C1621.88 205.339 1628.77 204.254 1634.82 202.085C1640.94 199.838 1646.09 196.855 1650.28 193.136C1654.54 189.339 1657.75 185 1659.92 180.119C1662.17 175.16 1663.29 169.93 1663.29 164.429C1663.29 158.927 1662.17 153.697 1659.92 148.739C1657.75 143.78 1654.54 139.441 1650.28 135.722C1646.09 131.925 1640.94 128.942 1634.82 126.772C1628.77 124.526 1621.88 123.402 1614.13 123.402C1606.38 123.402 1599.45 124.526 1593.33 126.772C1587.28 128.942 1582.13 131.925 1577.87 135.722C1573.69 139.441 1570.47 143.78 1568.22 148.739C1566.05 153.697 1564.97 158.927 1564.97 164.429ZM1718.32 95.8573H1752.72V115.615C1760.32 109.959 1768.34 105.078 1776.78 100.971C1785.23 96.8645 1793.63 93.7265 1802 91.557L1812.11 123.053C1798.86 124.371 1787.2 127.354 1777.13 132.003C1767.13 136.574 1759 143.044 1752.72 151.412V233H1718.32V95.8573ZM1815.42 189.765C1815.42 183.179 1816.85 177.174 1819.72 171.751C1822.59 166.327 1826.89 161.678 1832.62 157.804C1838.36 153.852 1845.48 150.831 1854.01 148.739C1862.61 146.569 1872.6 145.484 1883.99 145.484C1892.44 145.484 1901.31 146.104 1910.61 147.344C1919.98 148.584 1929.63 150.482 1939.55 153.039C1939.16 148.7 1937.84 144.71 1935.6 141.068C1933.35 137.349 1930.21 134.172 1926.18 131.538C1922.23 128.826 1917.43 126.734 1911.77 125.262C1906.19 123.789 1899.84 123.053 1892.71 123.053C1888.83 123.053 1884.57 123.286 1879.92 123.751C1875.28 124.216 1870.47 124.913 1865.51 125.843C1860.55 126.772 1855.63 127.935 1850.75 129.329C1845.95 130.724 1841.45 132.39 1837.27 134.327L1826.81 106.085C1832 104.225 1837.54 102.521 1843.43 100.971C1849.4 99.4214 1855.48 98.1042 1861.68 97.0195C1867.88 95.8573 1874.07 94.9662 1880.27 94.3464C1886.47 93.7265 1892.48 93.4166 1898.29 93.4166C1923.93 93.4166 1942.99 99.9638 1955.47 113.058C1967.94 126.153 1974.18 146.22 1974.18 173.262V233H1939.78V220.099C1936.21 222.191 1932.3 224.167 1928.04 226.027C1923.86 227.886 1919.29 229.513 1914.33 230.908C1909.37 232.303 1904.02 233.387 1898.29 234.162C1892.63 235.015 1886.63 235.441 1880.27 235.441C1869.58 235.441 1860.17 234.278 1852.03 231.954C1843.97 229.63 1837.23 226.414 1831.81 222.308C1826.38 218.201 1822.28 213.397 1819.49 207.896C1816.78 202.317 1815.42 196.274 1815.42 189.765ZM1851.68 188.603C1851.68 190.85 1852.26 193.019 1853.43 195.111C1854.59 197.126 1856.45 198.947 1859 200.574C1861.56 202.124 1864.82 203.402 1868.77 204.409C1872.8 205.339 1877.64 205.804 1883.29 205.804C1889.34 205.804 1895.19 205.262 1900.84 204.177C1906.5 203.092 1911.77 201.659 1916.65 199.877C1921.53 198.094 1925.95 196.041 1929.9 193.717C1933.85 191.392 1937.14 188.99 1939.78 186.511V180.467C1934.51 178.995 1929.28 177.755 1924.09 176.748C1918.98 175.741 1914.06 174.966 1909.33 174.424C1904.68 173.804 1900.26 173.378 1896.08 173.145C1891.97 172.913 1888.37 172.797 1885.27 172.797C1878.84 172.797 1873.49 173.223 1869.23 174.075C1864.97 174.927 1861.52 176.09 1858.89 177.562C1856.25 178.956 1854.39 180.622 1853.31 182.559C1852.22 184.496 1851.68 186.511 1851.68 188.603ZM1993.3 165.01C1993.3 154.085 1995.35 144.245 1999.46 135.489C2003.56 126.656 2009.22 119.141 2016.42 112.942C2023.71 106.666 2032.31 101.862 2042.23 98.5304C2052.22 95.1212 2063.03 93.4166 2074.65 93.4166C2079.61 93.4166 2084.49 93.7265 2089.3 94.3464C2094.18 94.9662 2098.83 95.8185 2103.24 96.9033C2107.74 97.988 2111.92 99.3052 2115.79 100.855C2119.75 102.327 2123.23 103.954 2126.25 105.736V40.1866H2160.66V233H2126.25V220.099C2123.23 222.191 2119.67 224.167 2115.56 226.027C2111.46 227.886 2107.04 229.513 2102.31 230.908C2097.59 232.303 2092.67 233.387 2087.55 234.162C2082.52 235.015 2077.52 235.441 2072.56 235.441C2060.94 235.441 2050.24 233.736 2040.48 230.327C2030.8 226.918 2022.47 222.114 2015.49 215.915C2008.52 209.717 2003.06 202.317 1999.11 193.717C1995.23 185.039 1993.3 175.47 1993.3 165.01ZM2029.44 165.01C2029.44 170.511 2030.53 175.702 2032.7 180.584C2034.94 185.465 2038.12 189.765 2042.23 193.484C2046.41 197.126 2051.41 200.032 2057.22 202.201C2063.11 204.293 2069.69 205.339 2076.98 205.339C2081.63 205.339 2086.27 204.913 2090.92 204.061C2095.57 203.131 2100.03 201.852 2104.29 200.225C2108.63 198.598 2112.66 196.622 2116.38 194.298C2120.17 191.973 2123.47 189.378 2126.25 186.511V138.976C2122.77 136.187 2119.09 133.823 2115.21 131.886C2111.34 129.949 2107.39 128.361 2103.36 127.121C2099.33 125.881 2095.26 124.99 2091.16 124.448C2087.05 123.828 2083.06 123.518 2079.18 123.518C2071.28 123.518 2064.23 124.603 2058.03 126.772C2051.91 128.864 2046.72 131.77 2042.46 135.489C2038.27 139.208 2035.06 143.586 2032.81 148.622C2030.56 153.659 2029.44 159.121 2029.44 165.01ZM2178.73 164.429C2178.73 154.588 2180.7 145.368 2184.65 136.768C2188.68 128.167 2194.38 120.651 2201.74 114.22C2209.18 107.789 2218.12 102.714 2228.58 98.9953C2239.12 95.2761 2250.94 93.4166 2264.03 93.4166C2277.13 93.4166 2288.9 95.2761 2299.36 98.9953C2309.9 102.714 2318.85 107.789 2326.21 114.22C2333.65 120.651 2339.34 128.167 2343.3 136.768C2347.33 145.368 2349.34 154.588 2349.34 164.429C2349.34 174.269 2347.33 183.489 2343.3 192.09C2339.34 200.69 2333.65 208.206 2326.21 214.637C2318.85 221.068 2309.9 226.143 2299.36 229.862C2288.9 233.581 2277.13 235.441 2264.03 235.441C2250.94 235.441 2239.12 233.581 2228.58 229.862C2218.12 226.143 2209.18 221.068 2201.74 214.637C2194.38 208.206 2188.68 200.69 2184.65 192.09C2180.7 183.489 2178.73 174.269 2178.73 164.429ZM2214.87 164.429C2214.87 169.93 2215.96 175.16 2218.12 180.119C2220.37 185 2223.59 189.339 2227.77 193.136C2232.03 196.855 2237.19 199.838 2243.23 202.085C2249.35 204.254 2256.28 205.339 2264.03 205.339C2271.78 205.339 2278.68 204.254 2284.72 202.085C2290.84 199.838 2295.99 196.855 2300.18 193.136C2304.44 189.339 2307.65 185 2309.82 180.119C2312.07 175.16 2313.19 169.93 2313.19 164.429C2313.19 158.927 2312.07 153.697 2309.82 148.739C2307.65 143.78 2304.44 139.441 2300.18 135.722C2295.99 131.925 2290.84 128.942 2284.72 126.772C2278.68 124.526 2271.78 123.402 2264.03 123.402C2256.28 123.402 2249.35 124.526 2243.23 126.772C2237.19 128.942 2232.03 131.925 2227.77 135.722C2223.59 139.441 2220.37 143.78 2218.12 148.739C2215.96 153.697 2214.87 158.927 2214.87 164.429ZM2368.22 95.8573H2402.62V115.615C2410.22 109.959 2418.24 105.078 2426.68 100.971C2435.13 96.8645 2443.53 93.7265 2451.9 91.557L2462.01 123.053C2448.76 124.371 2437.1 127.354 2427.03 132.003C2417.04 136.574 2408.9 143.044 2402.62 151.412V233H2368.22V95.8573ZM2465.32 189.765C2465.32 183.179 2466.76 177.174 2469.62 171.751C2472.49 166.327 2476.79 161.678 2482.52 157.804C2488.26 153.852 2495.39 150.831 2503.91 148.739C2512.51 146.569 2522.5 145.484 2533.89 145.484C2542.34 145.484 2551.21 146.104 2560.51 147.344C2569.88 148.584 2579.53 150.482 2589.45 153.039C2589.06 148.7 2587.74 144.71 2585.5 141.068C2583.25 137.349 2580.11 134.172 2576.08 131.538C2572.13 128.826 2567.33 126.734 2561.67 125.262C2556.09 123.789 2549.74 123.053 2542.61 123.053C2538.74 123.053 2534.47 123.286 2529.83 123.751C2525.18 124.216 2520.37 124.913 2515.41 125.843C2510.46 126.772 2505.54 127.935 2500.65 129.329C2495.85 130.724 2491.36 132.39 2487.17 134.327L2476.71 106.085C2481.9 104.225 2487.44 102.521 2493.33 100.971C2499.3 99.4214 2505.38 98.1042 2511.58 97.0195C2517.78 95.8573 2523.98 94.9662 2530.17 94.3464C2536.37 93.7265 2542.38 93.4166 2548.19 93.4166C2573.84 93.4166 2592.9 99.9638 2605.37 113.058C2617.85 126.153 2624.08 146.22 2624.08 173.262V233H2589.68V220.099C2586.12 222.191 2582.2 224.167 2577.94 226.027C2573.76 227.886 2569.19 229.513 2564.23 230.908C2559.27 232.303 2553.92 233.387 2548.19 234.162C2542.53 235.015 2536.53 235.441 2530.17 235.441C2519.48 235.441 2510.07 234.278 2501.93 231.954C2493.87 229.63 2487.13 226.414 2481.71 222.308C2476.29 218.201 2472.18 213.397 2469.39 207.896C2466.68 202.317 2465.32 196.274 2465.32 189.765ZM2501.58 188.603C2501.58 190.85 2502.17 193.019 2503.33 195.111C2504.49 197.126 2506.35 198.947 2508.91 200.574C2511.46 202.124 2514.72 203.402 2518.67 204.409C2522.7 205.339 2527.54 205.804 2533.2 205.804C2539.24 205.804 2545.09 205.262 2550.75 204.177C2556.4 203.092 2561.67 201.659 2566.55 199.877C2571.43 198.094 2575.85 196.041 2579.8 193.717C2583.75 191.392 2587.05 188.99 2589.68 186.511V180.467C2584.41 178.995 2579.18 177.755 2573.99 176.748C2568.88 175.741 2563.96 174.966 2559.23 174.424C2554.58 173.804 2550.16 173.378 2545.98 173.145C2541.87 172.913 2538.27 172.797 2535.17 172.797C2528.74 172.797 2523.4 173.223 2519.13 174.075C2514.87 174.927 2511.42 176.09 2508.79 177.562C2506.16 178.956 2504.3 180.622 2503.21 182.559C2502.13 184.496 2501.58 186.511 2501.58 188.603Z" fill="white"/>
<defs>
<linearGradient id="paint0_linear_2624_32348" x1="0" y1="283.232" x2="559" y2="283.232" gradientUnits="userSpaceOnUse">
<stop stop-color="#D7B356"/>
<stop offset="1" stop-color="#F4EDD0"/>
</linearGradient>
<linearGradient id="paint1_linear_2624_32348" x1="638" y1="415.787" x2="2300" y2="415.787" gradientUnits="userSpaceOnUse">
<stop stop-color="#D7B356"/>
<stop offset="1" stop-color="#F4EDD0"/>
</linearGradient>
</defs>
</svg>
